<svg width="38" height="29" viewBox="0 0 38 29" fill="none" xmlns="http://www.w3.org/2000/svg">
<path fill-rule="evenodd" clip-rule="evenodd" d="M23 0.292892L24.3536 1.64645L23.6464 2.35355L23 1.70711L20.3536 4.35355L19.6464 3.64645L23 0.292892Z" fill="#5F53E8"/>
<path fill-rule="evenodd" clip-rule="evenodd" d="M12.3536 15.3536L11.3536 16.3536L10.6464 15.6464L11.6464 14.6464L12.3536 15.3536Z" fill="#5F53E8"/>
<path fill-rule="evenodd" clip-rule="evenodd" d="M18.3536 9.35355L17.3536 10.3536L16.6464 9.64645L17.6464 8.64645L18.3536 9.35355Z" fill="#5F53E8"/>
<path fill-rule="evenodd" clip-rule="evenodd" d="M22.3536 11.3536L17.3536 16.3536L16.6464 15.6464L21.6464 10.6464L22.3536 11.3536ZM9.64645 19.6464L11.6464 17.6464L12.3536 18.3536L10.3536 20.3536C9.90805 20.7991 9.75 21.1794 9.75 21.5C9.75 21.7249 9.82779 21.9793 10.028 22.2648L11.6464 20.6464L12.3536 21.3536L10 23.7071L9.64645 23.3536C9.09195 22.7991 8.75 22.1794 8.75 21.5C8.75 20.8206 9.09195 20.2009 9.64645 19.6464Z" fill="#5F53E8"/>
<path fill-rule="evenodd" clip-rule="evenodd" d="M12.3536 12.3536L6.35355 18.3536C5.90805 18.7991 5.75 19.1794 5.75 19.5C5.75 19.7249 5.82779 19.9793 6.02805 20.2648L10.6464 15.6464L11.3536 16.3536L6 21.7071L5.64645 21.3536C5.09195 20.7991 4.75 20.1794 4.75 19.5C4.75 18.8206 5.09195 18.2009 5.64645 17.6464L11.6464 11.6464L12.3536 12.3536Z" fill="#5F53E8"/>
<path fill-rule="evenodd" clip-rule="evenodd" d="M28 1.29289L28.3536 1.64645C28.9081 2.20094 29.25 2.82062 29.25 3.5C29.25 4.17938 28.9081 4.79905 28.3536 5.35355L27.3536 6.35355L26.6464 5.64645L27.6464 4.64645C28.0919 4.20094 28.25 3.82062 28.25 3.5C28.25 3.27507 28.1722 3.02075 27.972 2.73516L27.3536 3.35355L26.6464 2.64645L28 1.29289ZM16.6464 12.6464L20.6464 8.64645L21.3536 9.35355L17.3536 13.3536L16.6464 12.6464Z" fill="#5F53E8"/>
<path fill-rule="evenodd" clip-rule="evenodd" d="M32 9.29289L32.3536 9.64645C32.9081 10.2009 33.25 10.8206 33.25 11.5C33.25 12.1794 32.9081 12.7991 32.3536 13.3536L31.6464 12.6464C32.0919 12.2009 32.25 11.8206 32.25 11.5C32.25 11.2751 32.1722 11.0207 31.972 10.7352L29.3536 13.3536L28.6464 12.6464L32 9.29289Z" fill="#5F53E8"/>
<path fill-rule="evenodd" clip-rule="evenodd" d="M22.3536 17.3536L17.3536 22.3536L16.6464 21.6464L21.6464 16.6464L22.3536 17.3536ZM15.3536 24.3536L11.3536 28.3536L10.6464 27.6464L14.6464 23.6464L15.3536 24.3536Z" fill="#5F53E8"/>
<path fill-rule="evenodd" clip-rule="evenodd" d="M19.6464 21.6464L21.6464 19.6464L22.3536 20.3536L20.3536 22.3536C19.9081 22.7991 19.75 23.1794 19.75 23.5C19.75 23.7249 19.8278 23.9793 20.028 24.2648L21.6464 22.6464L22.3536 23.3536L20 25.7071L19.6464 25.3536C19.0919 24.7991 18.75 24.1794 18.75 23.5C18.75 22.8206 19.0919 22.2009 19.6464 21.6464Z" fill="#5F53E8"/>
<path fill-rule="evenodd" clip-rule="evenodd" d="M33 2.29289L33.3536 2.64645C33.9081 3.20094 34.25 3.82062 34.25 4.5C34.25 5.17938 33.9081 5.79905 33.3536 6.35355L27.3536 12.3536L26.6464 11.6464L32.6464 5.64645C33.0919 5.20094 33.25 4.82062 33.25 4.5C33.25 4.27507 33.1722 4.02075 32.972 3.73516L27.3536 9.35355L26.6464 8.64645L33 2.29289Z" fill="#5F53E8"/>
<path fill-rule="evenodd" clip-rule="evenodd" d="M16.6464 18.6464L21.6464 13.6464L22.3536 14.3536L17.3536 19.3536L16.6464 18.6464Z" fill="#5F53E8"/>
<path fill-rule="evenodd" clip-rule="evenodd" d="M10.6464 24.6464L11.6464 23.6464L12.3536 24.3536L11.3536 25.3536C10.9081 25.7991 10.75 26.1794 10.75 26.5C10.75 26.7249 10.8278 26.9793 11.028 27.2648L11.6464 26.6464L12.3536 27.3536L11 28.7071L10.6464 28.3536C10.0919 27.7991 9.75 27.1794 9.75 26.5C9.75 25.8206 10.0919 25.2009 10.6464 24.6464Z" fill="#5F53E8"/>
<path fill-rule="evenodd" clip-rule="evenodd" d="M0.5 3.5H22C23.8862 3.5 25.2787 4.20658 26.1925 5.27502C27.0956 6.33093 27.5 7.70271 27.5 9V9.5H17.5V24.5H11.5V9.5H6C4.40073 9.5 3.01492 9.01871 2.02661 8.05864C1.03592 7.09626 0.5 5.7065 0.5 4V3.5ZM12.5 9.5V23.5H16.5V9.5H12.5ZM1.51815 4.5C1.61063 5.74389 2.05139 6.68856 2.72339 7.34136C3.48508 8.08129 4.59927 8.5 6 8.5H26.4763C26.3871 7.56318 26.0455 6.64167 25.4325 5.92498C24.7213 5.09342 23.6138 4.5 22 4.5H1.51815Z" fill="white"/>
<path fill-rule="evenodd" clip-rule="evenodd" d="M22 4C22 2.68008 23.2698 0.5 27 0.5H27.5V9H27H26.5V1.51497C23.6547 1.69019 23 3.35606 23 4H22ZM27.5 12.5V9H27H26.5V17.9994V23.5H22.5V9H21.5V24.5H27.5V18.5H31C31.0874 18.5 31.2166 18.5487 31.3339 18.6661C31.4513 18.7834 31.5 18.9126 31.5 19V24.5H37.5V19C37.5 15.2239 34.7761 12.5 31 12.5H27.5ZM27.5 13.5003V17.5H31C31.4126 17.5 31.7834 17.7013 32.0411 17.9589C32.2987 18.2166 32.5 18.5874 32.5 19V23.5H36.5V19C36.5 15.7761 34.2239 13.5 31 13.5L27.5 13.5003Z" fill="white"/>
</svg>
